<?xml version="1.0" encoding="iso-8859-1"?>
<!-- Generator: Adobe Illustrator 19.0.0, SVG Export Plug-In . SVG Version: 6.00 Build 0)  -->
<svg version="1.1" id="Capa_1" xmlns="http://www.w3.org/2000/svg" xmlns:xlink="http://www.w3.org/1999/xlink" x="0px" y="0px"
	 viewBox="0 0 512.001 512.001" style="enable-background:new 0 0 512.001 512.001;" xml:space="preserve">
<path style="fill:#2E3C43;" d="M483.523,422.024c-4.206,0-7.616-3.409-7.616-7.616V215.52c0-7.894-6.423-14.316-14.316-14.316
	h-33.575c-4.206,0-7.616-3.409-7.616-7.616c0-4.206,3.409-7.616,7.616-7.616h33.575c16.293,0,29.549,13.255,29.549,29.548v198.887
	C491.138,418.614,487.729,422.024,483.523,422.024z"/>
<path style="fill:#962A3A;" d="M49.738,363.451C22.312,363.451,0,341.137,0,313.711V97.994c0-27.427,22.312-49.739,49.738-49.739
	h342.046c27.427,0,49.738,22.312,49.738,49.739v215.718c0,27.427-22.312,49.739-49.738,49.739H49.738z"/>
<path style="fill:#FFF5F5;" d="M391.785,333.802H49.739c-11.096,0-20.09-8.995-20.09-20.09V97.994c0-11.096,8.995-20.09,20.09-20.09
	h342.045c11.096,0,20.09,8.995,20.09,20.09v215.718C411.876,324.807,402.88,333.802,391.785,333.802z"/>
<g>
	<path style="fill:#F7CF69;" d="M223.782,280.786l9.095,15.98c0.566,0.995,1.532,1.696,2.653,1.927l18.008,3.712
		c3.019,0.623,4.212,4.295,2.136,6.573l-12.387,13.588c-0.771,0.846-1.139,1.982-1.014,3.119l2.035,18.274
		c0.341,3.064-2.783,5.333-5.591,4.062l-16.751-7.582c-1.042-0.472-2.237-0.472-3.279,0l-16.751,7.582
		c-2.808,1.271-5.932-0.999-5.591-4.062l2.035-18.274c0.127-1.136-0.243-2.273-1.014-3.119l-12.387-13.588
		c-2.077-2.278-0.884-5.95,2.136-6.573l18.008-3.712c1.12-0.231,2.087-0.934,2.653-1.927l9.095-15.98
		C218.395,278.106,222.257,278.106,223.782,280.786z"/>
	<path style="fill:#F7CF69;" d="M98.938,55.726l9.095,15.98c0.566,0.995,1.532,1.696,2.653,1.927l18.008,3.712
		c3.019,0.623,4.212,4.295,2.136,6.573l-12.387,13.589c-0.771,0.846-1.139,1.982-1.014,3.119l2.035,18.274
		c0.341,3.064-2.783,5.333-5.591,4.062l-16.751-7.582c-1.043-0.472-2.237-0.472-3.279,0l-16.751,7.582
		c-2.808,1.271-5.932-0.999-5.591-4.062l2.035-18.274c0.127-1.136-0.243-2.273-1.014-3.119L60.134,83.917
		c-2.077-2.278-0.884-5.95,2.136-6.573l18.008-3.712c1.12-0.231,2.087-0.934,2.653-1.927l9.095-15.98
		C93.551,53.047,97.412,53.047,98.938,55.726z"/>
</g>
<path style="fill:#FFB64C;" d="M102.988,97.506L90.6,83.917c-2.077-2.278-0.884-5.95,2.136-6.573l17.979-3.706l-0.03-0.006
	c-1.12-0.231-2.087-0.934-2.653-1.927l-9.095-15.98c-1.524-2.679-5.386-2.679-6.911,0l-9.096,15.981
	c-0.566,0.995-1.532,1.696-2.653,1.927L62.27,77.345c-3.019,0.623-4.212,4.295-2.136,6.573l12.388,13.589
	c0.771,0.846,1.139,1.982,1.014,3.119L71.501,118.9c-0.341,3.064,2.783,5.333,5.591,4.062l16.751-7.582
	c1.043-0.472,2.237-0.472,3.279,0l4.986,2.257l1.894-17.01C104.127,99.488,103.758,98.351,102.988,97.506z"/>
<path style="fill:#F7CF69;" d="M349.497,55.726l9.095,15.98c0.566,0.995,1.532,1.696,2.653,1.927l18.008,3.712
	c3.019,0.623,4.212,4.295,2.136,6.573l-12.387,13.589c-0.771,0.846-1.139,1.982-1.014,3.119l2.035,18.274
	c0.341,3.064-2.783,5.333-5.591,4.062l-16.751-7.582c-1.043-0.472-2.237-0.472-3.279,0l-16.751,7.582
	c-2.809,1.271-5.932-0.999-5.591-4.062l2.035-18.274c0.127-1.136-0.243-2.273-1.014-3.119l-12.387-13.589
	c-2.077-2.278-0.884-5.95,2.136-6.573l18.008-3.712c1.12-0.231,2.087-0.934,2.653-1.927l9.095-15.98
	C344.111,53.047,347.973,53.047,349.497,55.726z"/>
<g>
	<path style="fill:#B5D3E3;" d="M223.254,132.502l37.536-40.857c1.185-1.29,1.386-3.205,0.494-4.714l-13.561-22.925
		c-0.716-1.209-2.016-1.952-3.422-1.952h-47.949c-1.405,0-2.707,0.742-3.422,1.952l-13.562,22.925
		c-0.893,1.508-0.692,3.423,0.494,4.714l37.536,40.857C218.974,134.217,221.679,134.217,223.254,132.502z"/>
	<path style="fill:#B5D3E3;" d="M348.97,345.944l37.536-40.857c1.185-1.29,1.386-3.205,0.494-4.714l-13.561-22.925
		c-0.716-1.209-2.016-1.952-3.422-1.952h-47.949c-1.405,0-2.707,0.742-3.422,1.952l-13.562,22.925
		c-0.893,1.508-0.692,3.423,0.494,4.714l37.536,40.857C344.689,347.659,347.395,347.659,348.97,345.944z"/>
	<path style="fill:#B5D3E3;" d="M98.41,345.944l37.536-40.857c1.185-1.29,1.386-3.205,0.494-4.714l-13.562-22.925
		c-0.716-1.209-2.016-1.952-3.422-1.952H71.508c-1.405,0-2.707,0.742-3.422,1.952l-13.562,22.925
		c-0.893,1.508-0.692,3.423,0.494,4.714l37.536,40.857C94.129,347.659,96.835,347.659,98.41,345.944z"/>
</g>
<path style="fill:#8ABBD5;" d="M84.99,300.373l14.716-24.877H71.508c-1.405,0-2.707,0.742-3.422,1.952l-13.562,22.925
	c-0.893,1.508-0.692,3.423,0.494,4.714l37.536,40.857c1.575,1.715,4.28,1.715,5.855,0l9.834-10.704c1.397-1.521,1.397-3.858,0-5.379
	l-22.759-24.774C84.299,303.796,84.098,301.882,84.99,300.373z"/>
<path style="fill:#EC5569;" d="M129.307,172.92L129.307,172.92c-7.643-7.643-20.035-7.643-27.678,0l-4.317,4.317
	c-1.03,1.03-2.699,1.03-3.728,0l-4.248-4.248c-7.643-7.643-20.035-7.643-27.678,0l0,0c-7.643,7.643-7.643,20.035,0,27.678
	l31.929,31.929c1.03,1.03,2.699,1.03,3.728,0l31.993-31.998C136.949,192.955,136.949,180.563,129.307,172.92z"/>
<path style="fill:#E63950;" d="M92.123,200.667c-7.173-7.173-7.612-18.526-1.323-26.214l-1.464-1.464
	c-7.643-7.643-20.035-7.643-27.678,0l0,0c-7.643,7.643-7.643,20.035,0,27.678l31.929,31.929c1.03,1.03,2.699,1.03,3.728,0
	l13.368-13.37L92.123,200.667z"/>
<path style="fill:#EC5569;" d="M254.839,172.92L254.839,172.92c-7.643-7.643-20.035-7.643-27.678,0l-4.317,4.317
	c-1.03,1.03-2.699,1.03-3.728,0l-4.248-4.248c-7.643-7.643-20.035-7.643-27.678,0l0,0c-7.643,7.643-7.643,20.035,0,27.678
	l31.929,31.929c1.029,1.03,2.699,1.03,3.728,0l31.993-31.998C262.482,192.955,262.482,180.563,254.839,172.92z"/>
<rect x="158.384" y="65.379" style="opacity:0.05;enable-background:new    ;" width="124.49" height="281.845"/>
<path style="fill:#EC5569;" d="M379.866,172.92L379.866,172.92c-7.643-7.643-20.035-7.643-27.678,0l-4.317,4.317
	c-1.03,1.03-2.699,1.03-3.728,0l-4.248-4.248c-7.643-7.643-20.035-7.643-27.678,0l0,0c-7.643,7.643-7.643,20.035,0,27.678
	l31.929,31.929c1.03,1.03,2.699,1.03,3.728,0l31.993-31.998C387.51,192.955,387.51,180.563,379.866,172.92z"/>
<path style="fill:#168C80;" d="M483.523,406.792c-15.702,0-28.477,12.775-28.477,28.477c0,15.702,12.775,28.477,28.477,28.477
	c15.702,0,28.478-12.775,28.478-28.477C512.001,419.567,499.225,406.792,483.523,406.792z"/>
<path style="fill:#13776B;" d="M476.329,435.269c0-11.941,7.391-22.182,17.835-26.406c-3.29-1.33-6.881-2.071-10.642-2.071
	c-15.702,0-28.477,12.775-28.477,28.477c0,15.702,12.775,28.477,28.477,28.477c3.761,0,7.351-0.74,10.642-2.071
	C483.72,457.452,476.329,447.211,476.329,435.269z"/>
<path style="fill:#168C80;" d="M391.786,48.254H49.739C22.312,48.254,0,70.568,0,97.994v215.718
	c0,27.426,22.312,49.739,49.739,49.739h342.046c27.427,0,49.738-22.312,49.738-49.739V97.994
	C441.524,70.568,419.211,48.254,391.786,48.254z M411.876,313.711c0,11.096-8.995,20.091-20.09,20.091H49.739
	c-11.096,0-20.09-8.996-20.09-20.091V97.994c0-11.096,8.995-20.091,20.09-20.091h342.045c11.096,0,20.09,8.995,20.09,20.091
	L411.876,313.711L411.876,313.711z"/>
<path style="fill:#13776B;" d="M30.465,313.711V97.994c0-27.426,22.312-49.739,49.739-49.739H49.739
	C22.312,48.254,0,70.568,0,97.994v215.718c0,27.426,22.312,49.739,49.739,49.739h30.465
	C52.778,363.451,30.465,341.137,30.465,313.711z"/>
<g>
</g>
<g>
</g>
<g>
</g>
<g>
</g>
<g>
</g>
<g>
</g>
<g>
</g>
<g>
</g>
<g>
</g>
<g>
</g>
<g>
</g>
<g>
</g>
<g>
</g>
<g>
</g>
<g>
</g>
</svg>
