<svg height="463pt" viewBox="0 -13 463.86859 463" width="463pt" xmlns="http://www.w3.org/2000/svg"><path d="m56 437.976562v-224l32-96 144-80 144 80 32 96v224zm0 0" fill="#eb4042"/><g fill="#d53332"><path d="m389.359375 157.976562h-314.71875l5.359375-16h304zm0 0"/><path d="m378.640625 125.976562h-293.28125l2.640625-8 14.398438-8h259.203124l14.398438 8zm0 0"/><path d="m332.800781 93.976562h-201.601562l28.800781-16h144zm0 0"/><path d="m400 189.976562h-336l5.359375-16h325.28125zm0 0"/><path d="m408 213.976562v8h-352v-8l2.640625-8h346.71875zm0 0"/><path d="m56 237.976562h352v16h-352zm0 0"/><path d="m56 269.976562h352v16h-352zm0 0"/><path d="m56 301.976562h352v16h-352zm0 0"/><path d="m56 333.976562h352v16h-352zm0 0"/><path d="m56 365.976562h352v16h-352zm0 0"/><path d="m56 397.976562h352v16h-352zm0 0"/><path d="m184 277.976562h96v160h-96zm0 0"/></g><path d="m412.117188 89.984375 7.765624-13.984375 12.839844 7.132812-7.761718 13.980469zm0 0" fill="#ccdce5"/><path d="m276.113281 14.421875 7.773438-13.988281 120 66.675781-7.769531 13.984375zm0 0" fill="#ccdce5"/><path d="m64 405.976562c0 17.675782-14.328125 32-32 32s-32-14.324218-32-32c0-17.671874 14.328125-32 32-32s32 14.328126 32 32zm0 0" fill="#ecaf4a"/><path d="m360 437.976562c-9.695312.039063-18.464844-5.761718-22.21875-14.703124-3.757812-8.9375-1.761719-19.261719 5.050781-26.160157 6.8125-6.898437 17.109375-9.019531 26.097657-5.375 1.738281-6.625 6.246093-12.183593 12.375-15.246093 6.128906-3.0625 13.277343-3.339844 19.625-.753907 2.335937-8.566406 9.222656-15.132812 17.890624-17.0625 8.664063-1.929687 17.6875 1.097657 23.4375 7.863281 5.75 6.765626 7.285157 16.15625 3.980469 24.398438 11.554688 3.160156 18.996094 14.371094 17.421875 26.246094-1.574218 11.875-11.683594 20.757812-23.660156 20.792968zm0 0" fill="#88bf40"/><path d="m144 157.976562h16v16h-16zm0 0" fill="#ccdce5"/><path d="m304 157.976562h16v16h-16zm0 0" fill="#ccdce5"/><path d="m272 165.976562c0 22.09375-17.910156 40-40 40s-40-17.90625-40-40c0-22.089843 17.910156-40 40-40s40 17.910157 40 40zm0 0" fill="#0093b9"/><path d="m192 411.578125v-91.199219l30.398438 45.597656zm78.398438-117.601563-38.398438 57.601563-38.398438-57.601563h-17.601562v144h17.601562l38.398438-57.597656 38.398438 57.597656h17.601562v-144zm-28.796876 72 30.398438-45.597656v91.199219zm0 0" fill="#ccdce5"/><path d="m272 157.976562h-32v-32h-16v32h-32v16h32v32h16v-32h32zm0 0" fill="#7ecbe5"/><path d="m232 213.976562c-26.507812 0-48-21.488281-48-48 0-26.507812 21.492188-48 48-48s48 21.492188 48 48c-.027344 26.5-21.5 47.976563-48 48zm0-80c-17.671875 0-32 14.328126-32 32 0 17.675782 14.328125 32 32 32s32-14.324218 32-32c0-17.671874-14.328125-32-32-32zm0 0" fill="#ccdce5"/><path d="m35.769531 374.355469c2.738281 4.753906 4.195313 10.136719 4.230469 15.621093 0 17.675782-14.328125 32-32 32-1.261719-.050781-2.519531-.175781-3.769531-.375 7.351562 13.164063 22.914062 19.382813 37.316406 14.914063 14.398437-4.472656 23.703125-18.410156 22.304687-33.421875-1.394531-15.011719-13.109374-27-28.082031-28.738281zm0 0" fill="#d69f44"/><path d="m128 405.976562c0 17.675782-14.328125 32-32 32s-32-14.324218-32-32c0-17.671874 14.328125-32 32-32s32 14.328126 32 32zm0 0" fill="#ecaf4a"/><path d="m99.769531 374.355469c2.738281 4.753906 4.195313 10.136719 4.230469 15.621093 0 17.675782-14.328125 32-32 32-1.261719-.050781-2.519531-.175781-3.769531-.375 7.351562 13.164063 22.914062 19.382813 37.316406 14.914063 14.398437-4.472656 23.703125-18.410156 22.304687-33.421875-1.394531-15.011719-13.109374-27-28.082031-28.738281zm0 0" fill="#d69f44"/><path d="m96 349.976562c0 17.675782-14.328125 32-32 32s-32-14.324218-32-32c0-17.671874 14.328125-32 32-32s32 14.328126 32 32zm0 0" fill="#ecaf4a"/><path d="m67.769531 318.355469c2.738281 4.753906 4.195313 10.136719 4.230469 15.621093 0 17.675782-14.328125 32-32 32-1.261719-.050781-2.519531-.175781-3.769531-.375 7.351562 13.164063 22.914062 19.382813 37.316406 14.914063 14.398437-4.472656 23.703125-18.410156 22.304687-33.421875-1.394531-15.011719-13.109374-27-28.082031-28.738281zm0 0" fill="#d69f44"/><path d="m152 261.976562h160v32h-160zm0 0" fill="#354f5c"/><path d="m400 141.976562-168-104-168 104v40l168-104 168 104zm0 0" fill="#d53332"/><path d="m448 237.976562-40-8-32-96-144-80-144 80-32 96-40 8-8-32 23.511719-3.734374 30.0625-90.191407 170.425781-94.679687 170.425781 94.679687 30.0625 90.191407 23.511719 3.734374zm0 0" fill="#354f5c"/></svg>